# xmcd
#
# Track frame offsets: 
#        182
#        14192
#        29037
#        49857
#        67932
#
# Disc length: 1234 seconds
#
# Revision: 0
# Processed by: cddbd v1.5.2PL0 Copyright (c) Steve Scherf et al.
# Submitted via: ExactAudioCopy v1.3
#
DISCID=4404d005
DTITLE=Coming Of Age - Baby Be Still (Promo CDM)
DYEAR=1993
DGENRE=Funk
TTITLE0=Baby Be Still (Sexual Healing Radio Edit)
TTITLE1=Baby Be Still (Sexual Healing Video Version)
TTITLE2=Baby Be Still (Sexual Healing Long Version)
TTITLE3=Baby Be Still (Club Mix)
TTITLE4=Baby Be Still (Album Version)
EXTD=
EXTT0=
EXTT1=
EXTT2=
EXTT3=
EXTT4=
PLAYORDER=
